<!DOCTYPE svg PUBLIC "-//W3C//DTD SVG 1.1//EN" "http://www.w3.org/Graphics/SVG/1.1/DTD/svg11.dtd">
<!-- Uploaded to: SVG Repo, www.svgrepo.com, Transformed by: SVG Repo Mixer Tools -->
<svg width="800px" height="800px" viewBox="-2.4 -2.4 28.80 28.80" xmlns="http://www.w3.org/2000/svg" id="send" class="icon glyph" fill="#000000">
<g id="SVGRepo_bgCarrier" stroke-width="0">
<rect x="-2.4" y="-2.4" width="28.80" height="28.80" rx="0" fill="#89e37d" strokewidth="0"/>
</g>
<g id="SVGRepo_tracerCarrier" stroke-linecap="round" stroke-linejoin="round"/>
<g id="SVGRepo_iconCarrier">
<path d="M21.66,12a2,2,0,0,1-1.14,1.81L5.87,20.75A2.08,2.08,0,0,1,5,21a2,2,0,0,1-1.82-2.82L5.46,13H11a1,1,0,0,0,0-2H5.46L3.18,5.87A2,2,0,0,1,5.86,3.25h0l14.65,6.94A2,2,0,0,1,21.66,12Z" style="fill:#231f20"/>
</g>
</svg>